<svg width="80" height="90" viewBox="0 0 80 90" fill="none" xmlns="http://www.w3.org/2000/svg">
<g clip-path="url(#clip0_2:56)">
<path d="M64.011 51.456C65.514 53.938 66.402 56.965 66.58 60.022C69.474 60.679 71.642 63.267 71.642 66.356C71.642 69.94 68.726 72.856 65.142 72.856C61.558 72.856 58.642 69.94 58.642 66.356C58.642 63.31 60.751 60.754 63.583 60.053C63.295 55.904 61.429 51.735 58.413 49.81C57.681 49.681 56.94 49.576 56.188 49.507C56.077 54.37 39.997 66.292 39.997 66.292C39.997 66.292 23.915 54.371 23.81 49.508C22.851 49.596 21.909 49.739 20.982 49.926C18.64 51.6 16.747 54.867 16.643 58.834C17.222 59.17 17.691 59.691 17.979 60.322C20.115 61.33 22.002 63.452 23.447 66.473C23.689 66.982 23.72 67.556 23.543 68.08C24.409 70.309 24.904 72.745 24.904 74.791C24.904 77.658 24.904 80.369 21.779 81.065C21.44 81.347 21.017 81.501 20.572 81.501H18.484C17.436 81.501 16.584 80.648 16.584 79.602L16.591 79.468C16.661 78.487 17.492 77.702 18.485 77.702H20.573C20.786 77.702 20.996 77.738 21.197 77.809C21.323 77.773 21.363 77.744 21.363 77.744C21.596 77.331 21.596 75.615 21.596 74.791C21.596 73.131 21.18 71.124 20.45 69.257C20.072 69.042 19.767 68.717 19.579 68.324C18.312 65.673 16.591 63.961 15.191 63.961C13.76 63.961 11.953 65.812 10.693 68.565C10.487 69.014 10.126 69.38 9.68097 69.597C9.02297 71.381 8.66097 73.218 8.66097 74.79C8.66097 75.482 8.66097 77.319 8.92597 77.75C8.92897 77.75 8.98797 77.786 9.15297 77.827C9.36897 77.744 9.60097 77.701 9.83397 77.701H11.926C12.892 77.701 13.699 78.43 13.81 79.38L13.821 79.401L13.825 79.527C13.825 80.648 12.973 81.501 11.927 81.501H9.83497C9.41997 81.501 9.01897 81.363 8.68897 81.11C7.49497 80.885 6.65197 80.358 6.11797 79.501C5.47297 78.463 5.35497 77.101 5.35497 74.791C5.35497 72.764 5.82297 70.431 6.67297 68.202C6.54797 67.725 6.58997 67.227 6.79697 66.778C7.68297 64.842 8.80897 63.184 10.053 61.985C10.737 61.326 11.471 60.797 12.241 60.409C12.53 59.733 13.033 59.18 13.645 58.83C13.704 56.202 14.428 53.708 15.616 51.612C6.18597 55.725 -0.405029 65.124 -0.405029 76.066C-0.405029 89.346 9.29997 90 22.007 90C23.392 90 24.814 89.992 26.265 89.992H53.734C55.179 89.992 56.603 90 57.99 90C70.697 90 80.406 89.348 80.406 76.066C80.403 64.978 73.636 55.479 64.011 51.456ZM61 80.875C61 81.221 60.687 81.5 60.301 81.5H56.5V85.3C56.5 85.687 56.219 86 55.875 86H52.125C51.779 86 51.5 85.687 51.5 85.3V81.5H47.699C47.314 81.5 47 81.221 47 80.875V77.125C47 76.779 47.314 76.5 47.699 76.5H51.5V72.7C51.5 72.313 51.779 72 52.125 72H55.875C56.219 72 56.5 72.313 56.5 72.7V76.5H60.301C60.688 76.5 61 76.779 61 77.125V80.875Z" fill="white"/>
<path d="M39.999 52.99C52.284 52.99 62.237 34.519 62.237 22.24C62.237 9.957 52.284 0 39.999 0C27.716 0 17.761 9.957 17.761 22.24C17.761 34.521 27.718 52.99 39.999 52.99ZM26.714 12.246C30.034 22.357 52.98 17.805 52.98 17.805C59.589 17.301 59.111 26.387 59.105 26.487C57.357 36.852 49.47 49.507 40 49.507C30.174 49.507 22.047 35.87 20.725 25.316C21.763 16.357 26.714 12.246 26.714 12.246Z" fill="white"/>
<path d="M65.142 69.356C66.7988 69.356 68.142 68.0128 68.142 66.356C68.142 64.6991 66.7988 63.356 65.142 63.356C63.4851 63.356 62.142 64.6991 62.142 66.356C62.142 68.0128 63.4851 69.356 65.142 69.356Z" fill="white"/>
</g>
<defs>
<clipPath id="clip0_2:56">
<rect width="80" height="90" fill="white"/>
</clipPath>
</defs>
</svg>
