<svg width="78" height="86" viewBox="0 0 78 86" fill="none" xmlns="http://www.w3.org/2000/svg">
<g clip-path="url(#clip0_2:63)">
<path d="M8.51998 45.8721C5.41198 53.4471 -0.680016 73.2061 -0.410016 74.8361C-0.257016 75.7481 0.833984 76.0261 4.26198 76.0261C8.62998 76.0261 15.133 75.4641 15.198 75.4591L15.577 75.4261L17.471 72.3091L18.234 86.2511H38.424H39.576H59.767L60.53 72.3091L62.423 75.4261L62.802 75.4591C62.867 75.4651 69.371 76.0261 73.739 76.0261C77.168 76.0261 78.259 75.7481 78.41 74.8361C78.681 73.2111 72.589 53.4511 69.48 45.8721C66.463 38.5201 53.419 35.7281 49.355 35.0261C52.95 32.0451 55.245 27.5471 55.245 22.5221C55.245 19.8201 54.572 17.2761 53.401 15.0321C53.416 13.3131 53.263 0.0730519 44.869 -0.238948C35.064 -0.618948 20.744 10.2451 20.138 16.6151C20.032 17.7291 20.284 19.6181 22.911 20.3981C22.82 21.0951 22.756 21.8011 22.756 22.5231C22.756 27.5471 25.05 32.0451 28.645 35.0271C24.581 35.7291 11.537 38.5211 8.51998 45.8721ZM33.328 64.6751H24.021V63.1751H33.328V64.6751ZM39 54.3331C37.678 52.8481 33.093 47.2881 31.358 40.1331C34.223 42.7911 37.433 43.0611 38.61 43.0611C38.79 43.0611 38.923 43.0541 39 43.0491C39.577 43.0881 43.34 43.1891 46.646 40.1161C44.916 47.2791 40.324 52.8471 39 54.3331ZM53.981 64.6751H44.673V63.1751H53.981V64.6751ZM51.285 36.9431C54.818 41.0661 59.263 47.6971 57.868 49.2531C57.444 49.7291 55.208 48.1901 54.008 47.3611C51.693 45.7631 49.506 44.2581 48.159 45.6321C47.251 46.5571 48.157 47.8641 48.955 49.0181C49.301 49.5171 49.944 50.4471 49.914 50.7161C49.289 52.1081 44.914 53.4311 41.125 54.1611C43.521 51.2201 48.162 44.5571 48.762 36.4501C49.346 36.5491 50.224 36.7111 51.285 36.9431ZM44.965 9.05005L45.512 8.97005L46.038 7.90405L46.608 6.75005L47.605 8.77005L47.704 8.97105L48.008 9.01505L50.154 9.32805L49.402 10.0611L48.381 11.0561L48.402 11.1761L48.8 13.4971L46.608 12.3451L44.416 13.4971L44.835 11.0561L43.062 9.32705L44.965 9.05005ZM24.256 22.5221C24.256 21.8981 24.308 21.2871 24.383 20.6821C24.966 20.7621 25.539 20.8171 26.086 20.8171C30.921 20.8171 33.505 17.7311 35.393 15.4771C36.478 14.1811 37.415 13.0621 38.328 13.0621C38.47 13.0621 38.614 13.0861 38.767 13.1371C40.253 13.6231 40.813 14.4051 41.461 15.3091C42.367 16.5741 43.393 18.0061 46.912 18.1281C47.26 18.1401 47.584 18.1461 47.886 18.1461C50.88 18.1461 51.969 17.5851 52.579 16.7751C53.33 18.5421 53.746 20.4841 53.746 22.5221C53.746 30.6521 47.131 37.2661 39.001 37.2661C30.871 37.2661 24.256 30.6521 24.256 22.5221ZM26.715 36.9451C27.776 36.7131 28.654 36.5501 29.24 36.4511C29.841 44.5561 34.481 51.2211 36.877 54.1621C33.089 53.4331 28.714 52.1131 28.096 50.7401C28.058 50.4461 28.701 49.5161 29.047 49.0171C29.845 47.8641 30.75 46.5561 29.842 45.6311C28.493 44.2581 26.307 45.7631 23.993 47.3601C22.793 48.1881 20.558 49.7281 20.133 49.2521C18.74 47.6991 23.184 41.0691 26.715 36.9451Z" fill="white"/>
</g>
<defs>
<clipPath id="clip0_2:63">
<rect width="78" height="86" fill="white"/>
</clipPath>
</defs>
</svg>
