<svg width="95" height="51" viewBox="0 0 95 51" fill="none" xmlns="http://www.w3.org/2000/svg">
<g clip-path="url(#clip0_2:38)">
<path d="M47 32.6072C59.7 32.6072 71.6 31.8064 80.8 30.2776L83.5 45.42C83.9 47.4584 81.9 49.3512 79.1 49.6424C73.5 50.152 65.3 50.5888 58.1 50.8072C56.3 50.88 54.6 50.3704 53.3 49.424L51 47.7496C49.8 46.876 48.2 46.3664 46.5 46.3664C44.8 46.3664 43.2 46.876 42 47.7496L39.8 49.424C38.5 50.3704 36.8 50.88 35 50.8072C28.2 50.5888 20.2 50.2248 14.8 49.7152C12 49.424 10 47.604 10.4 45.5656L13.1 30.4232C22.4 31.7336 34.4 32.6072 47 32.6072ZM55.5 41.9256C57.3 42.872 60.3 44.1096 63.7 44.1096C67.1 44.1096 70.1 42.872 71.9 41.9256C72.9 41.416 72.9 40.324 71.9 39.8144C70.1 38.868 67.1 37.6304 63.7 37.6304C60.3 37.6304 57.3 38.868 55.5 39.8144C54.6 40.324 54.6 41.416 55.5 41.9256ZM22.2 41.9256C24 42.872 27 44.1096 30.4 44.1096C33.8 44.1096 36.8 42.872 38.6 41.9256C39.6 41.416 39.6 40.324 38.6 39.8144C36.8 38.868 33.8 37.6304 30.4 37.6304C27 37.6304 24 38.868 22.2 39.8144C21.2 40.324 21.2 41.416 22.2 41.9256Z" fill="white"/>
<path d="M13.7 15.3536L12.7 18.3384C12.4 19.212 13.2 20.0856 14.4 20.304C15.6 20.5224 16.8 19.94 17.1 19.0664L21.8 4.50639C22.8 1.37599 27.1 -0.589608 31.4 0.138392L39.9 1.59439C44.6 2.39519 49.5 2.39519 54.2 1.59439L62.7 0.138392C67 -0.589608 71.3 1.37599 72.3 4.50639L77 19.0664C77.3 19.94 78.5 20.5224 79.7 20.304C80.9 20.0856 81.7 19.212 81.4 18.3384L80.4 15.3536C89.2 16.8096 94.6 18.848 94.6 21.1776C94.6 25.6912 73.3 29.3312 47.1 29.3312C20.9 29.3312 -0.399979 25.6912 -0.399979 21.1776C-0.499979 18.9208 4.90003 16.8824 13.7 15.3536Z" fill="white"/>
</g>
<defs>
<clipPath id="clip0_2:38">
<rect width="95" height="51" fill="white" transform="matrix(-1 0 0 1 95 0)"/>
</clipPath>
</defs>
</svg>
