<svg width="25" height="33" viewBox="0 0 25 33" fill="none" xmlns="http://www.w3.org/2000/svg">
<g clip-path="url(#clip0_2:43)">
<path d="M24.195 17.49L22.881 20.307L20.527 19.21L21.84 16.392C20.661 16.224 19.462 16.832 18.932 17.968L18.55 18.788C18.061 19.835 18.284 21.033 19.019 21.837L14.955 29.762C14.471 30.707 14.861 31.847 15.824 32.296L15.88 32.321C16.842 32.77 17.967 32.337 18.378 31.358L21.837 23.15C22.926 23.198 23.986 22.597 24.475 21.55L24.858 20.73C25.387 19.596 25.081 18.285 24.195 17.49ZM20.045 22.615L20.582 22.866L17.65 29.153L17.113 28.903L20.045 22.615ZM16.381 31.177C15.93 30.967 15.736 30.432 15.945 29.983C16.154 29.533 16.689 29.339 17.139 29.549C17.588 29.758 17.785 30.292 17.574 30.742C17.365 31.191 16.83 31.386 16.381 31.177Z" fill="white"/>
<path d="M9.07899 13.074C9.49929 13.074 9.83999 12.7333 9.83999 12.313C9.83999 11.8927 9.49929 11.552 9.07899 11.552C8.65869 11.552 8.31799 11.8927 8.31799 12.313C8.31799 12.7333 8.65869 13.074 9.07899 13.074Z" fill="white"/>
<path d="M14.051 13.074C14.4713 13.074 14.812 12.7333 14.812 12.313C14.812 11.8927 14.4713 11.552 14.051 11.552C13.6307 11.552 13.29 11.8927 13.29 12.313C13.29 12.7333 13.6307 13.074 14.051 13.074Z" fill="white"/>
<path d="M19.059 10.092C18.967 9.54695 18.664 9.21395 18.305 9.02795C18.19 9.27995 18.07 9.51495 17.947 9.72795C18.101 9.81295 18.235 9.96195 18.28 10.225C18.403 10.946 18.202 12.305 17.592 12.883C17.336 13.127 17.031 13.204 16.66 13.121L16.618 13.11L16.235 13.114L16.183 13.448C16.027 14.439 15.605 16.315 15.013 17.057C14.439 17.776 12.386 18.995 11.564 18.995C10.742 18.995 8.68797 17.776 8.11497 17.057C7.52297 16.315 7.10097 14.439 6.94497 13.448L6.89197 13.11H6.55397L6.46597 13.121C6.09497 13.204 5.79196 13.127 5.53496 12.883C4.92696 12.305 4.72496 10.945 4.84796 10.225C4.89396 9.96595 5.02396 9.81495 5.17696 9.72995C5.05396 9.51595 4.93496 9.28195 4.81896 9.02995C4.46196 9.21795 4.16296 9.54995 4.06896 10.092C3.92296 10.955 4.11396 12.622 4.99296 13.457C5.34096 13.788 5.76596 13.942 6.22697 13.944C6.38497 14.805 6.79297 16.67 7.49697 17.55C8.15097 18.371 10.409 19.786 11.565 19.786C12.721 19.786 14.977 18.371 15.633 17.55C16.334 16.67 16.742 14.807 16.901 13.944C17.366 13.944 17.789 13.788 18.137 13.457C19.016 12.622 19.207 10.955 19.059 10.092Z" fill="white"/>
<path d="M16.746 2.657C15.949 1.734 14.793 1.441 12.881 1.366C12.887 1.337 12.897 1.309 12.897 1.279C12.897 0.848 12.299 0.5 11.565 0.5C10.829 0.5 10.233 0.849 10.233 1.279C10.233 1.309 10.242 1.337 10.248 1.366C8.33503 1.441 7.18103 1.734 6.38303 2.657C4.62302 4.69 5.20002 8.127 5.22702 8.273L5.24902 8.353C5.93302 10.029 6.73003 10.879 7.62003 10.879C8.11103 10.879 8.58203 10.607 8.94103 10.11C9.30403 9.611 10.757 9.339 11.539 9.283C12.239 9.329 13.809 9.591 14.186 10.11C14.546 10.606 15.016 10.879 15.507 10.879C16.397 10.879 17.195 10.028 17.878 8.353L17.901 8.273C17.928 8.127 18.504 4.69 16.746 2.657ZM13.264 6.506H9.86503C9.24903 6.506 8.74903 6.006 8.74903 5.389C8.74903 4.774 9.24903 4.274 9.86503 4.274H13.264C13.88 4.274 14.38 4.774 14.38 5.389C14.38 6.006 13.88 6.506 13.264 6.506Z" fill="white"/>
<path d="M17.107 20.457C16.45 20.18 15.998 20 15.998 20C14.948 20.934 11.564 21.4 11.564 21.4C11.564 21.4 8.179 20.933 7.128 20C7.128 20 5.81799 20.519 4.37799 21.178C4.94899 22.221 5.75299 23.731 6.21 24.769H11.564H16.148L17.597 21.943C17.332 21.481 17.172 20.976 17.107 20.457Z" fill="white"/>
<path d="M20.061 30.501H23.233C23.233 30.501 23.376 26.564 22.71 24.298C22.696 24.3 22.685 24.304 22.673 24.307L20.061 30.501Z" fill="white"/>
<path d="M1.17999 22.917C-0.33801 24.084 -0.10401 30.501 -0.10401 30.501H4.41999V25.403C4.41999 25.403 3.59599 23.613 2.71099 21.989C2.09799 22.311 1.55099 22.632 1.17999 22.917Z" fill="white"/>
<path d="M13.873 29.206L15.693 25.656H5.388V30.501H13.539C13.557 30.058 13.662 29.617 13.873 29.206Z" fill="white"/>
</g>
<defs>
<clipPath id="clip0_2:43">
<rect width="25" height="33" fill="white"/>
</clipPath>
</defs>
</svg>
