<svg width="90" height="90" viewBox="0 0 90 90" fill="none" xmlns="http://www.w3.org/2000/svg">
<path d="M82.926 68.856C81.074 67.23 65.544 61.001 57.773 58.205C60.676 54.526 62.637 50.277 63.427 47.225C64.607 46.055 65.47 43.896 65.546 41.804C65.606 40.13 65.154 38.663 64.259 37.577C64.27 37.537 66.434 29.209 64.97 24.821C65.175 24.259 65.629 23.183 66.471 21.941C66.471 21.941 73.271 18.66 73.42 18.451C74.074 17.539 74.702 16.448 74.402 15.269C74.062 13.93 50.76 1.703 50.729 1.689C49.187 0.971004 47.162 0.576004 45.029 0.576004C42.896 0.576004 40.872 0.971004 39.33 1.689C39.297 1.704 16.018 13.858 15.657 15.229C15.343 16.423 15.976 17.527 16.637 18.45C16.787 18.659 23.59 21.942 23.59 21.942C24.45 23.183 24.969 24.186 25.221 24.721C23.606 30.85 25.298 35.797 25.997 37.778C25.071 38.764 24.573 40.084 24.577 41.592C24.583 43.672 25.581 46.028 26.926 47.279C27.46 49.317 28.952 54.077 32.082 58.325C16.235 64.637 7.81299 68.216 7.04099 68.967C5.23599 70.725 2.15699 82.547 0.916989 87.549C0.801989 88 0.903989 88.478 1.19099 88.844C1.47699 89.21 1.91699 89.424 2.38099 89.424H39.531L42.672 75.601L46.95 75.622L49.852 89.424H87.6C87.608 89.424 87.615 89.424 87.62 89.424C88.455 89.424 89.131 88.748 89.131 87.913C89.13 87.731 84.846 70.545 82.926 68.856ZM39.101 9.963C39.101 9.49 39.484 9.107 39.957 9.107H49.747C50.22 9.107 50.602 9.491 50.602 9.963V14.955C50.602 17.542 45.501 20.51 44.851 20.51C44.109 20.51 39.1 17.542 39.1 14.955V9.963H39.101ZM28.134 25.545L62.018 25.554C62.106 25.789 62.181 26.032 62.246 26.283C60.592 28.85 54.924 32.251 44.81 32.251C32.743 32.251 29.067 28.491 27.949 26.319C28.002 26.063 28.066 25.805 28.134 25.545ZM59.828 37.749H56.844C56.059 36.448 54.636 35.573 53.008 35.573H50.834C48.868 35.573 47.198 36.847 46.595 38.611C45.748 38.308 44.531 38.293 43.844 38.642C43.251 36.861 41.572 35.572 39.594 35.572H37.419C35.792 35.572 34.369 36.447 33.584 37.748H30.141C30.739 36.315 31.706 33.932 32.346 32.02C35.145 33.153 39.126 33.961 44.809 33.961C49.979 33.961 54.167 33.368 57.352 32.202C58.158 34.918 59.302 36.915 59.828 37.749ZM29.735 46.074C29.648 45.711 29.428 45.392 29.12 45.181C28.516 44.767 27.595 43.122 27.595 41.584C27.595 39.958 29.228 39.461 29.261 39.461H32.981C32.955 39.656 32.937 39.853 32.937 40.055C32.937 42.526 34.947 44.537 37.418 44.537H39.593C41.963 44.537 43.903 42.686 44.059 40.355C44.502 40.175 45.792 40.16 46.364 40.313C46.499 42.664 48.448 44.537 50.833 44.537H53.007C55.479 44.537 57.489 42.526 57.489 40.055C57.489 39.853 57.471 39.656 57.445 39.461H60.91C60.91 39.461 62.689 39.981 62.525 41.695C62.36 43.415 61.639 44.854 61.195 45.17C60.892 45.385 60.68 45.705 60.598 46.067C59.908 49.111 55.146 62.232 44.981 62.232C34.889 62.232 30.136 47.741 29.735 46.074ZM51.095 62.358C49.01 64.674 46.122 66.739 45.017 67.492C43.506 66.502 40.957 64.647 38.959 62.666C40.804 63.515 42.815 63.943 44.982 63.943C47.077 63.944 49.135 63.402 51.095 62.358ZM31.948 76.967L28.582 62.984C30.865 62.064 33.07 61.182 35.02 60.407C36.68 63.551 41.024 66.825 43.24 68.357C37.743 68.945 34.448 71.691 31.948 76.967ZM46.302 73.971H43.618C41.634 73.971 41.272 70.695 41.272 70.695C42.397 70.277 43.433 69.976 44.977 69.976C46.325 69.976 47.602 70.242 48.728 70.695C48.727 70.717 48.25 73.971 46.302 73.971ZM58.008 77.004C54.904 71.532 52.449 69.363 46.809 68.413C48.928 66.907 53.071 63.687 54.958 60.406C54.993 60.422 59.074 62.116 61.435 62.983L58.008 77.004Z" fill="white"/>
</svg>
