<svg width="88" height="67" viewBox="0 0 88 67" fill="none" xmlns="http://www.w3.org/2000/svg">
<path d="M63.3 60.4V62.4C63.3 64.7 65.2 66.6 67.5 66.6H75.6C77.9 66.6 79.8 64.7 79.8 62.4V58.2H63.3V60.4Z" fill="white"/>
<path d="M84.2 23.9H80.4C79.8 23.9 79.3 24.0999 78.8 24.2999L73.4 10.4C72.6 8.29995 70.5 6.99995 68.1 6.99995H57.6L56.9 1.89995C56.8 0.89995 55.9 0.199951 54.9 0.199951H33.1C32.1 0.199951 31.3 0.89995 31.1 1.89995L30.5 6.49995L30.4 6.99995H20.8C18.4 6.99995 16.3 8.39995 15.5 10.4L10 25C9.4 24.4 8.5 24 7.6 24H3.8C2 24 0.5 25.4999 0.5 27.2999V29.2C0.5 31 2 32.5 3.8 32.5H7.5C7 33.3 6.7 34.2999 6.7 35.2999V51.9C6.7 53.8 7.7 55.5 9.2 56.5H79.9C81.4 55.5 82.4 53.8 82.4 51.9V35.2999C82.4 34.2999 82.1 33.3 81.6 32.5H84.3C86.1 32.5 87.6 31 87.6 29.2V27.2999C87.5 25.3999 86.1 23.9 84.2 23.9ZM32.5 4.29995H35.4V1.69995H38.3V4.29995H41.2V1.69995H44V4.29995H46.9V1.69995H49.8V4.29995H52.7V1.69995H55C55.2 1.69995 55.5 1.89995 55.5 2.09995L55.6 2.89995V4.29995H52.7V6.99995H49.8V4.19995H46.9V6.99995H44V4.19995H41.1V6.99995H38.2V4.19995H35.3V6.99995H32.4V4.29995H32.5ZM14.5 24.2L18.7 13.2C19.1 11.8 20.4 10.9 21.8 10.9H67C68.4 10.9 69.7 11.8 70.1 13.2L74.3 24.2C74.7 25.3 73.9 26.4 72.8 26.4H16.1C14.9 26.5 14.1 25.3 14.5 24.2ZM19.7 45.2C16.8 45.2 14.4 42.8 14.4 39.9C14.4 37 16.8 34.5999 19.7 34.5999C22.6 34.5999 25 37 25 39.9C25 42.9 22.6 45.2 19.7 45.2ZM69.3 45.2C66.4 45.2 64 42.8 64 39.9C64 37 66.4 34.5999 69.3 34.5999C72.2 34.5999 74.6 37 74.6 39.9C74.6 42.9 72.2 45.2 69.3 45.2Z" fill="white"/>
<path d="M9.20001 62.4C9.20001 64.7 11.1 66.6 13.4 66.6H21.5C23.8 66.6 25.7 64.7 25.7 62.4V60.4V58.1H9.20001V62.4Z" fill="white"/>
</svg>
