<svg width="20" height="26" viewBox="0 0 20 26" fill="none" xmlns="http://www.w3.org/2000/svg">
<path d="M0.79126 0V14.2766C0.79126 18.2156 9.53814 20.6726 9.91064 20.7753L10 20.8L10.0891 20.7753C10.4613 20.6726 19.2088 18.2156 19.2088 14.2766V0H0.79126ZM18.5122 14.2766C18.5122 17.0515 12.4534 19.358 10 20.0506C7.54595 19.358 1.48782 17.0515 1.48782 14.2766V0.724425H18.5125V14.2766H18.5122Z" fill="white"/>
<path d="M9.96743 19.6418L9.99993 19.6512L10.0324 19.6418C13.1518 18.7279 18.1012 16.5097 18.1012 14.4453V1.14893H1.89868V14.445C1.89868 16.5097 6.84774 18.7279 9.96743 19.6418Z" fill="white"/>
</svg>
