<svg width="16" height="16" viewBox="0 0 16 16" fill="none" xmlns="http://www.w3.org/2000/svg">
<path d="M14.0601 4.65327C13.4934 4.0266 12.5467 3.71327 11.1734 3.71327H11.0134V3.6866C11.0134 2.5666 11.0134 1.17993 8.50673 1.17993H7.4934C4.98673 1.17993 4.98673 2.57327 4.98673 3.6866V3.71993H4.82673C3.44673 3.71993 2.50673 4.03326 1.94007 4.65993C1.28007 5.39326 1.30007 6.37993 1.36673 7.05326L1.3734 7.09993L1.41752 7.56321C1.43179 7.71299 1.51253 7.84843 1.63869 7.93041C1.79905 8.03461 2.02027 8.1756 2.16007 8.25327C2.2534 8.31327 2.3534 8.3666 2.4534 8.41993C3.5934 9.0466 4.84673 9.4666 6.12007 9.67327C6.18007 10.2999 6.4534 11.0333 7.9134 11.0333C9.3734 11.0333 9.66007 10.3066 9.70673 9.65993C11.0667 9.43993 12.3801 8.9666 13.5667 8.27326C13.6067 8.25326 13.6334 8.23326 13.6667 8.21326C13.9105 8.07549 14.1627 7.90823 14.3965 7.74162C14.51 7.66075 14.5821 7.53452 14.5975 7.39601L14.6001 7.37327L14.6334 7.05993C14.6401 7.01993 14.6401 6.9866 14.6467 6.93993C14.7001 6.2666 14.6867 5.3466 14.0601 4.65327ZM8.72673 9.21993C8.72673 9.9266 8.72673 10.0333 7.90673 10.0333C7.08673 10.0333 7.08673 9.9066 7.08673 9.2266V8.3866H8.72673V9.21993ZM5.94007 3.71327V3.6866C5.94007 2.55327 5.94007 2.13327 7.4934 2.13327H8.50673C10.0601 2.13327 10.0601 2.55993 10.0601 3.6866V3.71993H5.94007V3.71327Z" fill="white"/>
<path d="M13.6455 9.28368C14.0002 9.11776 14.4076 9.39865 14.3722 9.78863L14.1599 12.1268C14.0199 13.4601 13.4733 14.8201 10.5399 14.8201H5.45994C2.5266 14.8201 1.97994 13.4601 1.83994 12.1335L1.63922 9.92564C1.60418 9.54018 2.00211 9.25964 2.35574 9.41698C3.11546 9.755 4.25596 10.2379 5.02964 10.4541C5.19323 10.4998 5.32577 10.6182 5.40386 10.7691C5.82472 11.5819 6.68639 12.0135 7.91327 12.0135C9.12812 12.0135 9.99983 11.5652 10.4225 10.7493C10.5007 10.5983 10.6337 10.4799 10.7973 10.4338C11.6222 10.2014 12.845 9.65815 13.6455 9.28368Z" fill="white"/>
</svg>
