<svg width="16" height="16" viewBox="0 0 16 16" fill="none" xmlns="http://www.w3.org/2000/svg">
<path d="M14.6667 5.03327C14.6667 5.47327 14.3067 5.83327 13.8667 5.83327H2.13337C1.69337 5.83327 1.33337 5.47327 1.33337 5.03327V5.0266C1.33337 3.49993 2.56671 2.2666 4.09337 2.2666H11.9C13.4267 2.2666 14.6667 3.5066 14.6667 5.03327Z" fill="white"/>
<path d="M1.33337 7.63325V10.9733C1.33337 12.4999 2.56671 13.7333 4.09337 13.7333H11.9C13.4267 13.7333 14.6667 12.4933 14.6667 10.9666V7.63325C14.6667 7.19325 14.3067 6.83325 13.8667 6.83325H2.13337C1.69337 6.83325 1.33337 7.19325 1.33337 7.63325ZM5.33337 11.4999H4.00004C3.72671 11.4999 3.50004 11.2733 3.50004 10.9999C3.50004 10.7266 3.72671 10.4999 4.00004 10.4999H5.33337C5.60671 10.4999 5.83337 10.7266 5.83337 10.9999C5.83337 11.2733 5.60671 11.4999 5.33337 11.4999ZM9.66671 11.4999H7.00004C6.72671 11.4999 6.50004 11.2733 6.50004 10.9999C6.50004 10.7266 6.72671 10.4999 7.00004 10.4999H9.66671C9.94004 10.4999 10.1667 10.7266 10.1667 10.9999C10.1667 11.2733 9.94004 11.4999 9.66671 11.4999Z" fill="white"/>
</svg>
