<svg width="14" height="26" viewBox="0 0 14 26" fill="none" xmlns="http://www.w3.org/2000/svg">
<path d="M6.88465 8.32499V1.33673C6.88465 1.08567 6.68104 0.882054 6.42998 0.882054C6.17892 0.882054 5.97531 1.08567 5.97531 1.33673V8.3325H4.95545V1.33673C4.95545 1.05984 4.73082 0.835205 4.45393 0.835205C4.17704 0.835205 3.95241 1.05984 3.95241 1.33673V8.3325H2.93255V1.33673C2.93255 1.05984 2.70791 0.835205 2.43073 0.835205C2.15384 0.835205 1.92921 1.05984 1.92921 1.33673V8.3325H0.909346V1.33673C0.909346 1.08567 0.705734 0.882054 0.454673 0.882054C0.203612 0.882054 0 1.08567 0 1.33673V8.32499C0 9.88241 1.03458 11.1969 2.45415 11.6215V24.6001C2.45415 25.1455 2.89651 25.5878 3.44188 25.5878C3.98785 25.5878 4.4302 25.1455 4.4302 24.6001V11.6212C5.84948 11.1966 6.88465 9.88211 6.88465 8.32499Z" fill="white"/>
<path d="M12.6836 0.883057C11.9809 0.883057 11.3466 1.16625 10.7977 1.72423C8.10208 4.46578 8.17956 13.7682 8.19727 14.8193L8.21019 15.5812H11.9088V24.8122C11.9088 25.2399 12.2557 25.587 12.6836 25.587C13.1119 25.587 13.4584 25.2399 13.4584 24.8122V1.65786C13.4584 1.22992 13.1119 0.883057 12.6836 0.883057Z" fill="white"/>
</svg>
