<svg width="16" height="16" viewBox="0 0 16 16" fill="none" xmlns="http://www.w3.org/2000/svg">
<path d="M13.98 10.7199C13.82 12.4999 12.5334 13.6666 10.6667 13.6666H4.66671C2.82671 13.6666 1.33337 12.1733 1.33337 10.3333V5.66659C1.33337 3.85325 2.42671 2.58659 4.12671 2.37325C4.30004 2.34659 4.48004 2.33325 4.66671 2.33325H10.6667C10.84 2.33325 11.0067 2.33992 11.1667 2.36659C12.76 2.55325 13.84 3.66659 13.98 5.27992C14 5.47325 13.84 5.63325 13.6467 5.63325H12.6134C11.9734 5.63325 11.38 5.87992 10.9534 6.31992C10.4467 6.81325 10.1934 7.50659 10.2534 8.19992C10.36 9.41325 11.4267 10.3666 12.6934 10.3666H13.6467C13.84 10.3666 14 10.5266 13.98 10.7199Z" fill="white"/>
<path d="M14.6667 7.3133V8.68663C14.6667 9.0533 14.3734 9.3533 14.0001 9.36663H12.6934C11.9734 9.36663 11.3134 8.83997 11.2534 8.11997C11.2134 7.69997 11.3734 7.30663 11.6534 7.0333C11.9001 6.77997 12.2401 6.6333 12.6134 6.6333H14.0001C14.3734 6.64663 14.6667 6.94663 14.6667 7.3133Z" fill="white"/>
</svg>
